# xmcd
#
# Track frame offsets:
# 150
# 13642
# 28647
# 45517
# 62979
# 78466
# 94989
# 108938
# 123606
# 135901
# 148257
# 161920
#
# Disc length: 2321 seconds
#
#
# Revision: 1
# Processed by: cddbd v1.5.1PL0 Copyright (c) Steve Scherf et al.
# Submitted via: FreeRIP 2.70 
#
DISCID=a4090f0c
DTITLE=Líbanos - Inconfundível - Vol. 7
DYEAR=2002
DGENRE=Forró
TTITLE0=O Que Passou, Passou
TTITLE1=Amor Bandido
TTITLE2=Quero Mais
TTITLE3=Semente do Amor
TTITLE4=Me Faz
TTITLE5=A Paixão
TTITLE6=Você de Novo Aqui
TTITLE7=Soy Loco De Amor Por Ti
TTITLE8=Quero Tranzar
TTITLE9=Cansei de Sofrer
TTITLE10=Seja Feliz
TTITLE11=Parede da Paixão
EXTD=YEAR: 2002 ID3G: 100
EXTT0=
EXTT1=
EXTT2=
EXTT3=
EXTT4=
EXTT5=
EXTT6=
EXTT7=
EXTT8=
EXTT9=
EXTT10=
EXTT11=
PLAYORDER=
